HIERARCHY
ROOT Root
{
  OFFSET 0.0 0.0 0.0
  CHANNELS 6 Xposition Yposition Zposition Zrotation Yrotation Xrotation
  JOINT Hips
  {
    OFFSET 0.0 100.0 0.0
    CHANNELS 6 Xposition Yposition Zposition Zrotation Yrotation Xrotation
    JOINT Spine1
    {
      OFFSET 5.003913 -0.037094 -0.013727
      CHANNELS 3 Zrotation Yrotation Xrotation
      JOINT Spine2
      {
        OFFSET 7.125363 -1e-06 0.0
        CHANNELS 3 Zrotation Yrotation Xrotation
        JOINT Chest
        {
          OFFSET 7.594027 1e-06 0.0
          CHANNELS 3 Zrotation Yrotation Xrotation
          JOINT Neck1
          {
            OFFSET 26.313086 -0.460272 -0.181672
            CHANNELS 3 Zrotation Yrotation Xrotation
            JOINT Neck2
            {
              OFFSET 8.04591 0.0 0.0
              CHANNELS 3 Zrotation Yrotation Xrotation
              JOINT Head
              {
                OFFSET 6.432777 0.0 0.0
                CHANNELS 3 Zrotation Yrotation Xrotation
                JOINT HeadEnd
                {
                  OFFSET 16.169769 0.06451 0.00362
                  CHANNELS 3 Zrotation Yrotation Xrotation
                }
                JOINT Jaw
                {
                  OFFSET 0.108738 3.12938 0.002639
                  CHANNELS 3 Zrotation Yrotation Xrotation
                }
                JOINT LeftEye
                {
                  OFFSET 4.451729 8.166359 3.206392
                  CHANNELS 3 Zrotation Yrotation Xrotation
                }
                JOINT RightEye
                {
                  OFFSET 4.43689 8.135758 -3.222429
                  CHANNELS 3 Zrotation Yrotation Xrotation
                }
              }
            }
          }
          JOINT LeftShoulder
          {
            OFFSET 23.218927 5.195579 1.621656
            CHANNELS 3 Zrotation Yrotation Xrotation
            JOINT LeftArm
            {
              OFFSET 15.902122 2e-06 -2e-06
              CHANNELS 3 Zrotation Yrotation Xrotation
              JOINT LeftForeArm
              {
                OFFSET 28.739304 0.0 -1e-06
                CHANNELS 3 Zrotation Yrotation Xrotation
                JOINT LeftHand
                {
                  OFFSET 27.093979 -4e-06 0.0
                  CHANNELS 3 Zrotation Yrotation Xrotation
                  JOINT LeftHandThumb1
                  {
                    OFFSET 2.276787 3.380274 0.83384
                    CHANNELS 3 Zrotation Yrotation Xrotation
                    JOINT LeftHandThumb2
                    {
                      OFFSET 4.705307 -2e-06 -1e-06
                      CHANNELS 3 Zrotation Yrotation Xrotation
                      JOINT LeftHandThumb3
                      {
                        OFFSET 2.798515 0.0 3e-06
                        CHANNELS 3 Zrotation Yrotation Xrotation
                        JOINT LeftHandThumbEnd
                        {
                          OFFSET 3.180786 5e-06 -4e-06
                          CHANNELS 3 Zrotation Yrotation Xrotation
                        }
                      }
                    }
                  }
                  JOINT LeftHandIndex1
                  {
                    OFFSET 3.24778 2.352677 0.137192
                    CHANNELS 3 Zrotation Yrotation Xrotation
                    JOINT LeftHandIndex2
                    {
                      OFFSET 6.367104 1e-06 0.0
                      CHANNELS 3 Zrotation Yrotation Xrotation
                      JOINT LeftHandIndex3
                      {
                        OFFSET 3.662361 0.0 0.0
                        CHANNELS 3 Zrotation Yrotation Xrotation
                        JOINT LeftHandIndex4
                        {
                          OFFSET 2.329239 4e-06 -4e-06
                          CHANNELS 3 Zrotation Yrotation Xrotation
                          JOINT LeftHandIndexEnd
                          {
                            OFFSET 2.767822 0.0 0.0
                            CHANNELS 3 Zrotation Yrotation Xrotation
                          }
                        }
                      }
                    }
                  }
                  JOINT LeftHandMiddle1
                  {
                    OFFSET 3.163612 0.945023 -0.406112
                    CHANNELS 3 Zrotation Yrotation Xrotation
                    JOINT LeftHandMiddle2
                    {
                      OFFSET 6.276794 3e-06 0.0
                      CHANNELS 3 Zrotation Yrotation Xrotation
                      JOINT LeftHandMiddle3
                      {
                        OFFSET 4.356522 -1e-06 4e-06
                        CHANNELS 3 Zrotation Yrotation Xrotation
                        JOINT LeftHandMiddle4
                        {
                          OFFSET 2.996872 0.0 8e-06
                          CHANNELS 3 Zrotation Yrotation Xrotation
                          JOINT LeftHandMiddleEnd
                          {
                            OFFSET 2.323257 3e-06 -4e-06
                            CHANNELS 3 Zrotation Yrotation Xrotation
                          }
                        }
                      }
                    }
                  }
                  JOINT LeftHandRing1
                  {
                    OFFSET 2.882607 -0.309162 0.107445
                    CHANNELS 3 Zrotation Yrotation Xrotation
                    JOINT LeftHandRing2
                    {
                      OFFSET 6.033195 0.0 4e-06
                      CHANNELS 3 Zrotation Yrotation Xrotation
                      JOINT LeftHandRing3
                      {
                        OFFSET 4.350578 3e-06 0.0
                        CHANNELS 3 Zrotation Yrotation Xrotation
                        JOINT LeftHandRing4
                        {
                          OFFSET 2.651321 1e-06 -7e-06
                          CHANNELS 3 Zrotation Yrotation Xrotation
                          JOINT LeftHandRingEnd
                          {
                            OFFSET 1.937668 1e-06 -4e-06
                            CHANNELS 3 Zrotation Yrotation Xrotation
                          }
                        }
                      }
                    }
                  }
                  JOINT LeftHandPinky1
                  {
                    OFFSET 2.865311 -1.525436 0.575687
                    CHANNELS 3 Zrotation Yrotation Xrotation
                    JOINT LeftHandPinky2
                    {
                      OFFSET 5.549362 1e-06 -8e-06
                      CHANNELS 3 Zrotation Yrotation Xrotation
                      JOINT LeftHandPinky3
                      {
                        OFFSET 3.070969 0.0 -4e-06
                        CHANNELS 3 Zrotation Yrotation Xrotation
                        JOINT LeftHandPinky4
                        {
                          OFFSET 1.549675 1e-06 0.0
                          CHANNELS 3 Zrotation Yrotation Xrotation
                          JOINT LeftHandPinkyEnd
                          {
                            OFFSET 1.952118 0.0 0.0
                            CHANNELS 3 Zrotation Yrotation Xrotation
                          }
                        }
                      }
                    }
                  }
                }
              }
            }
          }
          JOINT RightShoulder
          {
            OFFSET 23.161718 5.296122 -1.380114
            CHANNELS 3 Zrotation Yrotation Xrotation
            JOINT RightArm
            {
              OFFSET -16.027195 -2e-06 1.1e-05
              CHANNELS 3 Zrotation Yrotation Xrotation
              JOINT RightForeArm
              {
                OFFSET -28.736641 4e-06 2e-06
                CHANNELS 3 Zrotation Yrotation Xrotation
                JOINT RightHand
                {
                  OFFSET -27.133617 6e-06 0.0
                  CHANNELS 3 Zrotation Yrotation Xrotation
                  JOINT RightHandThumb1
                  {
                    OFFSET -2.274328 -3.351035 -0.83067
                    CHANNELS 3 Zrotation Yrotation Xrotation
                    JOINT RightHandThumb2
                    {
                      OFFSET -4.703592 -3e-06 2e-06
                      CHANNELS 3 Zrotation Yrotation Xrotation
                      JOINT RightHandThumb3
                      {
                        OFFSET -2.794937 -4e-06 -3e-06
                        CHANNELS 3 Zrotation Yrotation Xrotation
                        JOINT RightHandThumbEnd
                        {
                          OFFSET -3.183853 4e-06 1e-06
                          CHANNELS 3 Zrotation Yrotation Xrotation
                        }
                      }
                    }
                  }
                  JOINT RightHandIndex1
                  {
                    OFFSET -3.253498 -2.33755 -0.127667
                    CHANNELS 3 Zrotation Yrotation Xrotation
                    JOINT RightHandIndex2
                    {
                      OFFSET -6.344433 0.0 0.0
                      CHANNELS 3 Zrotation Yrotation Xrotation
                      JOINT RightHandIndex3
                      {
                        OFFSET -3.654869 0.0 -8e-06
                        CHANNELS 3 Zrotation Yrotation Xrotation
                        JOINT RightHandIndex4
                        {
                          OFFSET -2.327587 -1e-06 0.0
                          CHANNELS 3 Zrotation Yrotation Xrotation
                          JOINT RightHandIndexEnd
                          {
                            OFFSET -2.770004 3e-06 8e-06
                            CHANNELS 3 Zrotation Yrotation Xrotation
                          }
                        }
                      }
                    }
                  }
                  JOINT RightHandMiddle1
                  {
                    OFFSET -3.168224 -0.944764 0.411762
                    CHANNELS 3 Zrotation Yrotation Xrotation
                    JOINT RightHandMiddle2
                    {
                      OFFSET -6.266689 -1e-06 -4e-06
                      CHANNELS 3 Zrotation Yrotation Xrotation
                      JOINT RightHandMiddle3
                      {
                        OFFSET -4.348904 0.0 0.0
                        CHANNELS 3 Zrotation Yrotation Xrotation
                        JOINT RightHandMiddle4
                        {
                          OFFSET -3.000237 2e-06 -4e-06
                          CHANNELS 3 Zrotation Yrotation Xrotation
                          JOINT RightHandMiddleEnd
                          {
                            OFFSET -2.32148 -4e-06 -4e-06
                            CHANNELS 3 Zrotation Yrotation Xrotation
                          }
                        }
                      }
                    }
                  }
                  JOINT RightHandRing1
                  {
                    OFFSET -2.885654 0.293261 -0.119232
                    CHANNELS 3 Zrotation Yrotation Xrotation
                    JOINT RightHandRing2
                    {
                      OFFSET -6.032833 -1e-06 -4e-06
                      CHANNELS 3 Zrotation Yrotation Xrotation
                      JOINT RightHandRing3
                      {
                        OFFSET -4.33881 0.0 -4e-06
                        CHANNELS 3 Zrotation Yrotation Xrotation
                        JOINT RightHandRing4
                        {
                          OFFSET -2.654903 -4e-06 -4e-06
                          CHANNELS 3 Zrotation Yrotation Xrotation
                          JOINT RightHandRingEnd
                          {
                            OFFSET -1.935123 0.0 4e-06
                            CHANNELS 3 Zrotation Yrotation Xrotation
                          }
                        }
                      }
                    }
                  }
                  JOINT RightHandPinky1
                  {
                    OFFSET -2.866241 1.503903 -0.60527
                    CHANNELS 3 Zrotation Yrotation Xrotation
                    JOINT RightHandPinky2
                    {
                      OFFSET -5.553177 -1e-06 0.0
                      CHANNELS 3 Zrotation Yrotation Xrotation
                      JOINT RightHandPinky3
                      {
                        OFFSET -3.062664 -1e-06 -4e-06
                        CHANNELS 3 Zrotation Yrotation Xrotation
                        JOINT RightHandPinky4
                        {
                          OFFSET -1.546532 2e-06 4e-06
                          CHANNELS 3 Zrotation Yrotation Xrotation
                          JOINT RightHandPinkyEnd
                          {
                            OFFSET -1.952339 0.0 -4e-06
                            CHANNELS 3 Zrotation Yrotation Xrotation
                          }
                        }
                      }
                    }
                  }
                }
              }
            }
          }
        }
      }
    }
    JOINT LeftLeg
    {
      OFFSET -8.443107 2.567604 10.043214
      CHANNELS 3 Zrotation Yrotation Xrotation
      JOINT LeftShin
      {
        OFFSET 43.229202 1e-06 -1e-06
        CHANNELS 3 Zrotation Yrotation Xrotation
        JOINT LeftFoot
        {
          OFFSET 42.298607 1e-06 1e-06
          CHANNELS 3 Zrotation Yrotation Xrotation
          JOINT LeftToeBase
          {
            OFFSET 14.165863 1e-06 0.0
            CHANNELS 3 Zrotation Yrotation Xrotation
            JOINT LeftToeEnd
            {
              OFFSET 6.714096 -0.234461 0.0
              CHANNELS 3 Zrotation Yrotation Xrotation
            }
          }
        }
      }
    }
    JOINT RightLeg
    {
      OFFSET -8.303924 2.592729 -10.047277
      CHANNELS 3 Zrotation Yrotation Xrotation
      JOINT RightShin
      {
        OFFSET -43.369686 0.0 0.0
        CHANNELS 3 Zrotation Yrotation Xrotation
        JOINT RightFoot
        {
          OFFSET -42.260784 4e-06 3e-06
          CHANNELS 3 Zrotation Yrotation Xrotation
          JOINT RightToeBase
          {
            OFFSET -14.222237 -2e-06 -2e-06
            CHANNELS 3 Zrotation Yrotation Xrotation
            JOINT RightToeEnd
            {
              OFFSET -6.660072 0.232574 -1e-06
              CHANNELS 3 Zrotation Yrotation Xrotation
            }
          }
        }
      }
    }
  }
}
MOTION
Frames: 4
Frame Time: 0.03333333333333333
0.0 0.0 0.0 0.0 -0.0 0.0 -7.786156 96.796127 47.96212 94.618507 -6.167801 83.73452 1.373258 -1.007263 1.045745 -10.165664 -0.481194 3.09166 16.166817 -1.239291 1.534656 12.856559 -4.88166 2.215603 -2.537558 -0.612214 -0.050851 -36.744274 0.858552 -3.344646 6e-06 0.0 -0.0 -0.017453 0.027242 0.161405 -0.298192 0.005011 0.104355 -0.296704 0.038343 0.21249 -105.947624 -67.853622 128.489212 2.798257 -59.835434 26.340267 19.651237 -1.096546 -0.231825 -0.868143 4.312624 -11.544015 17.636576 -26.322765 52.411034 -19.466553 -14.395535 29.41029 -0.0 -8.774782 -3e-06 16.297361 -17.724546 6.225307 -0.609776 -1.795644 -3.889313 -4.807068 -11.046789 -2.937828 -1.2e-05 -20.976015 4.4e-05 -5.019984 -25.033596 -4.031821 5e-06 0.0 -3e-06 -10.634488 -5.686951 -3.565575 10.573215 -17.922924 -3.113856 -1e-05 -13.821211 2.9e-05 -0.501832 -31.18157 -4.026936 -11.757962 -60.098759 8.24816 -13.982653 -7.150171 -2.875032 13.772658 -8.401478 -3.218213 0.347679 -34.211559 0.771737 -0.963065 -17.733427 2.621059 -1e-06 1e-06 -0.0 -17.346344 -20.095158 -4.201749 21.757458 -1.638367 3.866417 -3e-06 -6.338827 1.3e-05 -1.697596 -22.591785 -6.193962 0.0 -3e-06 -2e-06 67.139183 -83.526764 132.693069 55.232182 -59.50351 -12.932236 36.307232 0.461707 -0.028889 1.289164 16.619352 16.385561 22.181995 -20.375751 49.933067 -16.701803 -16.743509 28.476433 -2.9e-05 -12.690565 1.4e-05 16.470514 -18.117287 2.400059 -0.105912 -1.513851 -4.275864 -5.039017 -5.612844 -2.953544 2.4e-05 -11.020485 -1.2e-05 -6.11124 -15.895283 -3.840466 -0.0 1e-06 -2e-06 -10.283333 -5.680257 -4.34181 11.028278 -11.302363 -2.372644 -1.384234 -14.238515 -6.320097 -0.625365 -26.924091 -3.827597 -4.309539 -50.395283 -3.623191 -13.708478 -7.363437 -3.720915 18.141129 -14.052696 -3.24269 4e-05 -18.787189 -1.4e-05 -0.429695 -8.456022 2.555494 1e-06 1e-06 0.0 -15.923466 -20.094381 -5.473559 30.419142 -7.190825 1.735877 1.2e-05 -8.162887 -6e-06 -1.861851 -22.861372 -6.167912 -2e-06 -1e-06 -1e-06 131.265549 -1.517537 -4.272755 29.830513 0.182306 0.377828 -79.776093 -4.136808 -11.490459 -11.367748 1.716358 2.000352 -0.999996 0.0 0.0 10.721208 -5.625615 -3.792075 22.275345 -0.443217 0.448729 -77.275787 0.049429 -2.955345 -27.85634 1.075066 1.460357 -1.000001 0.0 -0.0 
0.0 0.0 0.0 0.0 -0.0 0.0 -6.942452 98.573471 54.078354 93.715385 -5.878652 82.026077 -0.005971 -0.340752 1.257027 -10.729849 -0.248403 3.34821 15.668413 -0.836198 1.997784 14.632451 -4.874381 2.14264 -2.593673 -0.51717 0.302037 -35.100418 0.78991 -2.608567 6e-06 -0.0 0.0 -0.011765 0.024271 0.144986 -0.227602 -0.003224 0.099958 -0.228952 0.040724 0.181162 -102.79258 -66.881401 125.380936 -4.361786 -60.51334 33.253761 18.597929 -1.22563 -0.213539 -0.22313 3.506834 -12.934119 17.636526 -26.322817 52.411156 -19.466581 -14.395533 29.410364 4e-06 -8.774782 5e-06 16.348518 -17.982439 6.209802 -0.609775 -1.795649 -3.889321 -4.807074 -11.046821 -2.937833 -3.2e-05 -20.97607 4.1e-05 -5.020004 -25.033678 -4.031831 8e-06 -0.0 2e-06 -10.634488 -5.686967 -3.565582 10.573202 -17.922956 -3.113869 -2e-05 -13.821247 2.2e-05 -0.501839 -31.181665 -4.026972 -11.899318 -60.282269 8.178557 -13.982647 -7.150197 -2.875037 13.772649 -8.401484 -3.218225 0.347652 -34.211655 0.771721 -0.963078 -17.733463 2.621044 0.0 -1e-06 -0.0 -17.34634 -20.095211 -4.201755 21.757444 -1.638347 3.866412 -7e-06 -6.33884 1e-05 -1.697603 -22.591854 -6.19399 1e-06 -3e-06 0.0 75.479988 -83.995605 124.281441 54.974545 -61.511463 -12.847283 38.74448 0.623063 -0.007556 2.487724 16.357664 16.892399 22.182091 -20.375925 49.93325 -16.701799 -16.743542 28.476503 -3.9e-05 -12.690582 2e-06 16.465767 -18.22237 2.426257 -0.105913 -1.513845 -4.275879 -5.039021 -5.612834 -2.953552 3.6e-05 -11.020487 6e-06 -6.111241 -15.895263 -3.840466 -0.0 0.0 -3e-06 -10.283348 -5.680244 -4.341837 11.028306 -11.302383 -2.372624 -1.384226 -14.238507 -6.320101 -0.625362 -26.924107 -3.827539 -4.452494 -50.525398 -3.546861 -13.708495 -7.36342 -3.720943 18.141159 -14.052723 -3.242662 4.7e-05 -18.787207 3.2e-05 -0.429698 -8.456034 2.555532 1e-06 1e-06 -3e-06 -15.923468 -20.094364 -5.473592 30.419188 -7.190872 1.735901 1.8e-05 -8.162904 2e-05 -1.86187 -22.861414 -6.167866 0.0 -2e-06 -2e-06 135.82431 -3.313701 -4.480089 20.951229 0.223299 0.373639 -76.121223 -4.345394 -11.548107 -10.739756 1.727834 2.003225 -0.999994 -0.0 0.0 14.44577 -6.288493 -4.546377 18.208601 -0.324311 0.585125 -63.141685 2.154535 -1.77184 -34.211182 1.078806 1.337542 -0.999999 0.0 -0.0 
0.0 0.0 0.0 0.0 -0.0 0.0 -6.105567 99.672585 60.053329 92.596062 -5.294559 80.378593 -1.129357 0.4427 1.317357 -11.173951 -0.032183 3.541183 15.278307 -0.387123 2.33954 16.170227 -4.848088 2.115073 -2.633015 -0.392821 0.615813 -33.309685 0.706145 -1.900858 6e-06 -0.0 0.0 -0.002208 0.023333 0.112611 -0.113542 -0.001696 0.083536 -0.109975 0.036257 0.130172 -100.6054 -65.920143 123.327972 -10.869409 -60.089561 40.102921 18.428326 -1.524134 -0.222963 0.555905 2.316333 -12.67722 17.636679 -26.322695 52.411148 -19.466698 -14.395638 29.410398 4e-06 -8.774859 -6e-06 16.523565 -18.058456 6.112862 -0.609778 -1.795655 -3.889327 -4.807112 -11.046822 -2.937851 1e-05 -20.976053 -1.2e-05 -5.019989 -25.033644 -4.031926 8e-06 -1e-06 -2e-06 -10.634568 -5.686979 -3.56558 10.573308 -17.922964 -3.113911 4e-06 -13.821238 -7e-06 -0.501762 -31.181644 -4.027058 -12.062785 -60.448856 8.105989 -13.98276 -7.150209 -2.875031 13.772775 -8.401497 -3.218249 0.347749 -34.211628 0.771631 -0.96302 -17.733437 2.621026 1e-06 0.0 -1e-06 -17.346485 -20.095236 -4.201768 21.757637 -1.638374 3.866437 1e-06 -6.338837 -3e-06 -1.697594 -22.591846 -6.194058 -1e-06 -6e-06 -2e-06 82.315659 -84.519272 117.430542 55.950993 -63.095718 -14.095234 39.476635 0.810413 0.026122 2.919249 15.957068 16.855007 22.182056 -20.375788 49.933281 -16.701876 -16.743549 28.476566 1.1e-05 -12.690633 1.4e-05 16.535355 -18.242504 2.431934 -0.105916 -1.513862 -4.275886 -5.039058 -5.612901 -2.953555 -8e-06 -11.020574 -2.1e-05 -6.111338 -15.895462 -3.840501 3e-06 0.0 -2e-06 -10.283384 -5.680319 -4.341827 11.028297 -11.302421 -2.372657 -1.384286 -14.238653 -6.320154 -0.625422 -26.924368 -3.827706 -4.474325 -50.512287 -3.645849 -13.708551 -7.363517 -3.72092 18.141172 -14.052751 -3.242714 -3e-06 -18.787348 -5.5e-05 -0.42971 -8.456088 2.555481 1e-06 -1e-06 0.0 -15.923586 -20.094564 -5.473564 30.41927 -7.190792 1.735904 -7e-06 -8.162941 -2.7e-05 -1.861882 -22.861599 -6.168052 -3e-06 -2e-06 0.0 140.070175 -5.108033 -4.296546 15.957932 0.158057 0.25755 -75.12532 -4.702471 -10.376875 -10.11236 1.798543 2.020126 -1.000003 -0.0 -0.0 16.334339 -7.003104 -5.264401 18.390532 -0.366334 0.807363 -51.944332 3.378641 -1.204791 -31.223988 0.87961 1.246586 -1.000007 0.0 -1e-06 
0.0 0.0 0.0 0.0 -0.0 0.0 -5.260307 99.737991 65.743324 91.704201 -4.298578 78.836594 -1.776836 1.19456 1.171848 -11.493219 0.15886 3.877109 15.039979 -0.115019 2.582009 17.203962 -5.186964 2.200819 -2.659497 -0.273242 0.714967 -31.792048 0.6956 -1.469252 6e-06 -0.0 0.0 0.003915 0.032998 0.126845 -0.019266 0.02804 0.111432 -0.011212 0.024251 0.128586 -99.614616 -64.91748 122.7631 -15.264358 -58.801605 44.900478 19.326759 -1.672718 -0.235875 1.318548 0.919835 -11.983383 17.63656 -26.322779 52.411274 -19.466654 -14.395587 29.410442 -1e-06 -8.774819 4e-06 16.744455 -18.068428 5.976739 -0.609777 -1.795653 -3.88933 -4.807085 -11.046815 -2.937852 0.0 -20.97604 3e-06 -5.019965 -25.033625 -4.031887 4e-06 0.0 -3e-06 -10.634516 -5.686974 -3.565591 10.573252 -17.922958 -3.113902 -5e-06 -13.82123 7e-06 -0.501779 -31.181601 -4.027015 -12.143509 -60.534691 8.013511 -13.982693 -7.150202 -2.875044 13.772711 -8.401492 -3.218246 0.347713 -34.21162 0.771677 -0.96305 -17.733437 2.621043 0.0 -1e-06 0.0 -17.346394 -20.095226 -4.201782 21.757528 -1.638365 3.866417 -0.0 -6.338832 3e-06 -1.697581 -22.591822 -6.194028 0.0 -3e-06 -2e-06 87.299629 -84.967018 112.476463 57.485134 -64.32618 -16.52866 39.471481 0.847736 0.091792 2.984751 15.953461 16.142637 22.182076 -20.375919 49.933384 -16.701887 -16.743574 28.476622 -3.7e-05 -12.690619 1.5e-05 16.529362 -18.205412 2.488028 -0.105914 -1.513857 -4.275886 -5.039029 -5.61286 -2.953564 3.4e-05 -11.020521 -1.7e-05 -6.111244 -15.895336 -3.840503 0.0 -0.0 -2e-06 -10.28336 -5.680272 -4.341841 11.028321 -11.30241 -2.37266 -1.384224 -14.238576 -6.320145 -0.625328 -26.924236 -3.827635 -4.351258 -50.422855 -3.815543 -13.708514 -7.363451 -3.720946 18.141191 -14.052753 -3.242708 5.2e-05 -18.787266 -6e-06 -0.429698 -8.456056 2.555519 -3e-06 -0.0 0.0 -15.9235 -20.09444 -5.473603 30.419249 -7.190864 1.735879 1.9e-05 -8.162924 2e-06 -1.861846 -22.861488 -6.167943 -3e-06 -3e-06 -1e-06 144.298309 -6.299379 -3.707872 13.750998 0.04577 0.1107 -76.849442 -5.331389 -8.830301 -9.815477 1.88857 2.049348 -0.999999 0.0 1e-06 16.888224 -8.044342 -5.780912 22.792974 -0.624334 0.984916 -47.150249 2.835015 -1.790029 -20.128216 0.67963 1.208831 -1.000007 0.0 0.0 
